<svg width="20" height="21" viewBox="0 0 20 21" fill="none" xmlns="http://www.w3.org/2000/svg">
<path d="M10.8333 18.8334H4.16663C2.49996 18.8334 1.66663 18.0001 1.66663 16.3334V9.66675C1.66663 8.00008 2.49996 7.16675 4.16663 7.16675H8.33329V16.3334C8.33329 18.0001 9.16663 18.8334 10.8333 18.8334Z" stroke="#939393" stroke-width="1.5" stroke-miterlimit="10" stroke-linecap="round" stroke-linejoin="round"/>
<path d="M8.42495 3.83325C8.35828 4.08325 8.33329 4.35825 8.33329 4.66659V7.16659H4.16663V5.49992C4.16663 4.58325 4.91663 3.83325 5.83329 3.83325H8.42495Z" stroke="#939393" stroke-width="1.5" stroke-miterlimit="10" stroke-linecap="round" stroke-linejoin="round"/>
<path d="M11.6666 7.16675V11.3334" stroke="#939393" stroke-width="1.5" stroke-miterlimit="10" stroke-linecap="round" stroke-linejoin="round"/>
<path d="M15 7.16675V11.3334" stroke="#939393" stroke-width="1.5" stroke-miterlimit="10" stroke-linecap="round" stroke-linejoin="round"/>
<path d="M14.1666 14.6667H12.5C12.0416 14.6667 11.6666 15.0417 11.6666 15.5001V18.8334H15V15.5001C15 15.0417 14.625 14.6667 14.1666 14.6667Z" stroke="#939393" stroke-width="1.5" stroke-miterlimit="10" stroke-linecap="round" stroke-linejoin="round"/>
<path d="M5 11.3333V14.6666" stroke="#939393" stroke-width="1.5" stroke-miterlimit="10" stroke-linecap="round" stroke-linejoin="round"/>
<path d="M8.33337 16.3334V4.66675C8.33337 3.00008 9.16671 2.16675 10.8334 2.16675H15.8334C17.5 2.16675 18.3334 3.00008 18.3334 4.66675V16.3334C18.3334 18.0001 17.5 18.8334 15.8334 18.8334H10.8334C9.16671 18.8334 8.33337 18.0001 8.33337 16.3334Z" stroke="#939393" stroke-width="1.5" stroke-miterlimit="10" stroke-linecap="round" stroke-linejoin="round"/>
</svg>
