<svg id="Layer_1" data-name="Layer 1" xmlns="http://www.w3.org/2000/svg" xmlns:xlink="http://www.w3.org/1999/xlink" viewBox="0 0 1920 1080"><defs><style>.cls-1{fill:url(#linear-gradient);}.cls-2{fill:url(#linear-gradient-2);}.cls-3{fill:url(#linear-gradient-3);}.cls-4{fill:url(#linear-gradient-4);}</style><linearGradient id="linear-gradient" x1="388" y1="496.11" x2="840.6" y2="496.11" gradientUnits="userSpaceOnUse"><stop offset="0" stop-color="#3f9ff6"/><stop offset="0.41" stop-color="#409df6"/><stop offset="0.63" stop-color="#4395f6"/><stop offset="0.81" stop-color="#4787f6"/><stop offset="0.96" stop-color="#4e74f7"/><stop offset="1" stop-color="#506df7"/></linearGradient><linearGradient id="linear-gradient-2" x1="923.74" y1="588.6" x2="1148.63" y2="588.6" xlink:href="#linear-gradient"/><linearGradient id="linear-gradient-3" x1="1198.56" y1="586.24" x2="1252.82" y2="586.24" xlink:href="#linear-gradient"/><linearGradient id="linear-gradient-4" x1="1307.86" y1="586.24" x2="1532.35" y2="586.24" xlink:href="#linear-gradient"/></defs><title>Logo chữ SVG</title><path class="cls-1" d="M653.33,723.56c-2-2.18-35.51,3.16-40.68,3a219.26,219.26,0,0,1-45.84-6,224.84,224.84,0,0,1-81.06-37.66c-51.32-38-89-99.85-96.36-163.46C376.77,409.9,451.29,303.72,557.06,274c70-19.69,148.71-4.13,204.53,42.82,97,81.58,106.34,244.3,12.72,332.26l66.29,76.88H819.4c-63.22,0-124.85-21.58-173.2-62.32-14.72-12.41-26.79-25.27-32.07-37.13.85,1.91,21.19-2.34,22.87-2.67C699.79,611.5,746.22,559,746.42,494.1c.2-64.6-50.72-121.9-114.87-131.22C570.48,354,513,390.77,492.69,448.6,450.43,569.25,584.16,649.62,653.33,723.56Z"/><path class="cls-2" d="M1116.4,695.15q-32.25,31.46-80.21,31.45T956,695.15q-32.24-31.46-32.24-78.24V450.6H978V616.12q0,24.76,16.51,41.48t41.68,16.71q25.15,0,41.68-16.71t16.51-41.48V450.6h54.25V616.91Q1148.63,663.7,1116.4,695.15Z"/><path class="cls-3" d="M1198.56,721.88V450.6h54.26V721.88Z"/><path class="cls-4" d="M1521.35,670.77h11v51.11h-16.9q-55.44,0-83.35-43.24l-44-60.16-25.94,28.31v75.09h-54.26V450.6h54.26V572.48L1463.94,450.6h66.84l-105.37,125,53.47,71.17Q1496.18,670.78,1521.35,670.77Z"/></svg>