<svg width="20" height="21" viewBox="0 0 20 21" fill="none" xmlns="http://www.w3.org/2000/svg">
<path d="M1.66663 18.8333H18.3333" stroke="#939393" stroke-width="1.5" stroke-miterlimit="10" stroke-linecap="round" stroke-linejoin="round"/>
<path d="M2.45837 18.8334L2.50004 8.80836C2.50004 8.30003 2.74171 7.81674 3.14171 7.50008L8.97504 2.9584C9.57504 2.49173 10.4167 2.49173 11.025 2.9584L16.8584 7.49173C17.2667 7.8084 17.5 8.2917 17.5 8.80836V18.8334" stroke="#939393" stroke-width="1.5" stroke-miterlimit="10" stroke-linejoin="round"/>
<path d="M10.8333 14.6667H9.16663C8.47496 14.6667 7.91663 15.2251 7.91663 15.9167V18.8334H12.0833V15.9167C12.0833 15.2251 11.525 14.6667 10.8333 14.6667Z" stroke="#939393" stroke-width="1.5" stroke-miterlimit="10" stroke-linejoin="round"/>
<path d="M7.91663 11.9584H6.24996C5.79163 11.9584 5.41663 11.5834 5.41663 11.1251V9.87508C5.41663 9.41675 5.79163 9.04175 6.24996 9.04175H7.91663C8.37496 9.04175 8.74996 9.41675 8.74996 9.87508V11.1251C8.74996 11.5834 8.37496 11.9584 7.91663 11.9584Z" stroke="#939393" stroke-width="1.5" stroke-miterlimit="10" stroke-linejoin="round"/>
<path d="M13.75 11.9584H12.0833C11.625 11.9584 11.25 11.5834 11.25 11.1251V9.87508C11.25 9.41675 11.625 9.04175 12.0833 9.04175H13.75C14.2083 9.04175 14.5833 9.41675 14.5833 9.87508V11.1251C14.5833 11.5834 14.2083 11.9584 13.75 11.9584Z" stroke="#939393" stroke-width="1.5" stroke-miterlimit="10" stroke-linejoin="round"/>
<path d="M15.8334 6.33325L15.8084 3.83325H12.1417" stroke="#939393" stroke-width="1.5" stroke-miterlimit="10" stroke-linecap="round" stroke-linejoin="round"/>
</svg>
